<?xml version="1.0" encoding="iso-8859-1"?>
<!-- Generator: Adobe Illustrator 19.0.0, SVG Export Plug-In . SVG Version: 6.00 Build 0)  -->
<svg version="1.1" id="Capa_1" xmlns="http://www.w3.org/2000/svg" xmlns:xlink="http://www.w3.org/1999/xlink" x="0px" y="0px"
	 viewBox="0 0 491.52 491.52" style="enable-background:new 0 0 491.52 491.52;" xml:space="preserve">
<g>
	<circle style="fill:#334D5C;" cx="245.76" cy="245.76" r="245.76"/>
	<path style="fill:#334D5C;" d="M121.344,327.168c-4.096,0-8.192-1.536-10.752-4.096l11.776,11.776v-7.168L121.344,327.168
		L121.344,327.168z"/>
</g>
<path style="opacity:0.1;enable-background:new    ;" d="M121.344,327.168c-4.096,0-8.192-1.536-10.752-4.096l11.776,11.776v-7.168
	L121.344,327.168L121.344,327.168z"/>
<path style="fill:#334D5C;" d="M109.056,321.536L109.056,321.536L109.056,321.536L109.056,321.536z"/>
<path style="opacity:0.1;enable-background:new    ;" d="M109.056,321.536L109.056,321.536L109.056,321.536L109.056,321.536z"/>
<path style="fill:#334D5C;" d="M110.592,323.072l-1.024-1.024C109.568,322.048,110.08,322.56,110.592,323.072z"/>
<path style="opacity:0.1;enable-background:new    ;" d="M110.592,323.072l-1.024-1.024
	C109.568,322.048,110.08,322.56,110.592,323.072z"/>
<path style="fill:#334D5C;" d="M487.424,291.328l-136.192-135.68c-2.048-2.56-4.608-4.608-7.168-7.168
	c-24.064-22.016-58.88-35.84-98.304-35.84c-71.68,0-130.048,46.08-130.048,102.912l6.144,6.144v6.144h-0.512
	c-9.216,0-16.384,7.168-16.384,16.384v3.072c0,4.608,2.048,9.216,5.632,12.288l11.264,11.264v19.968h-0.512
	c-9.216,0-16.384,7.168-16.384,16.384v3.072c0,4.096,1.536,7.68,4.096,10.752h15.872v15.872l-3.072-3.072v7.168h-11.264v7.168
	c0,7.68,3.584,14.848,9.216,20.48l122.368,122.88c1.024,0,2.048,0,3.584,0C366.08,491.52,465.92,405.504,487.424,291.328z"/>
<path style="opacity:0.1;enable-background:new    ;" d="M487.424,291.328l-136.192-135.68c-2.048-2.56-4.608-4.608-7.168-7.168
	c-24.064-22.016-58.88-35.84-98.304-35.84c-71.68,0-130.048,46.08-130.048,102.912l6.144,6.144v6.144h-0.512
	c-9.216,0-16.384,7.168-16.384,16.384v3.072c0,4.608,2.048,9.216,5.632,12.288l11.264,11.264v19.968h-0.512
	c-9.216,0-16.384,7.168-16.384,16.384v3.072c0,4.096,1.536,7.68,4.096,10.752h15.872v15.872l-3.072-3.072v7.168h-11.264v7.168
	c0,7.68,3.584,14.848,9.216,20.48l122.368,122.88c1.024,0,2.048,0,3.584,0C366.08,491.52,465.92,405.504,487.424,291.328z"/>
<path style="fill:#334D5C;" d="M110.592,323.072c3.072,2.56,6.656,4.096,10.752,4.096h0.512v7.168l3.072,3.072v-15.872h-15.872l0,0
	L110.592,323.072z"/>
<path id="SVGCleanerId_0" d="M110.592,323.072c3.072,2.56,6.656,4.096,10.752,4.096h0.512v7.168l3.072,3.072v-15.872h-15.872l0,0
	L110.592,323.072z"/>
<g>
	<path id="SVGCleanerId_0_1_" d="M110.592,323.072c3.072,2.56,6.656,4.096,10.752,4.096h0.512v7.168l3.072,3.072v-15.872h-15.872
		l0,0L110.592,323.072z"/>
</g>
<rect x="121.86" y="279.04" style="fill:#D15241;" width="244.22" height="12.288"/>
<path style="fill:#DC8744;" d="M370.176,327.168H121.344c-8.704,0-16.384-7.168-16.384-16.384v-3.072
	c0-8.704,7.168-16.384,16.384-16.384h249.344c8.704,0,16.384,7.168,16.384,16.384v3.072C386.56,320,379.392,327.168,370.176,327.168
	z"/>
<path style="fill:#FCD462;" d="M340.48,378.88H144.384c-18.432,0-33.792-14.848-33.792-33.792v-3.584h263.68v3.584
	C374.272,363.52,358.912,378.88,340.48,378.88z"/>
<path style="fill:#F6C358;" d="M242.176,341.504H110.592v7.168c0,16.896,15.872,30.208,35.328,30.208h96.768v-37.376H242.176z"/>
<g>
	<path style="fill:#44C4A1;" d="M341.504,341.504c0,4.608,5.632,8.192,12.288,8.192s12.288-3.584,12.288-8.192"/>
	<path style="fill:#44C4A1;" d="M317.44,341.504c0,4.608,5.632,8.192,12.288,8.192s12.288-3.584,12.288-8.192"/>
	<path style="fill:#44C4A1;" d="M292.864,341.504c0,4.608,5.632,8.192,12.288,8.192s12.288-3.584,12.288-8.192"/>
	<path style="fill:#44C4A1;" d="M268.8,341.504c0,4.608,5.632,8.192,12.288,8.192s12.288-3.584,12.288-8.192"/>
	<path style="fill:#44C4A1;" d="M244.224,341.504c0,4.608,5.632,8.192,12.288,8.192c6.656,0,12.288-3.584,12.288-8.192"/>
	<path style="fill:#44C4A1;" d="M219.648,341.504c0,4.608,5.632,8.192,12.288,8.192c6.656,0,12.288-3.584,12.288-8.192"/>
	<path style="fill:#44C4A1;" d="M195.584,341.504c0,4.608,5.632,8.192,12.288,8.192c6.656,0,12.288-3.584,12.288-8.192"/>
	<path style="fill:#44C4A1;" d="M171.008,341.504c0,4.608,5.632,8.192,12.288,8.192c6.656,0,12.288-3.584,12.288-8.192"/>
	<path style="fill:#44C4A1;" d="M146.432,341.504c0,4.608,5.632,8.192,12.288,8.192c6.656,0,12.288-3.584,12.288-8.192"/>
	<path style="fill:#44C4A1;" d="M121.856,341.504c0,4.608,5.632,8.192,12.288,8.192c6.656,0,12.288-3.584,12.288-8.192"/>
	<rect x="121.86" y="327.17" style="fill:#44C4A1;" width="244.22" height="15.36"/>
</g>
<path style="fill:#FCD462;" d="M375.808,217.088c0-57.856-58.368-104.448-130.048-104.448s-130.048,46.592-130.048,103.936h260.096
	V217.088z"/>
<path style="fill:#F6C358;" d="M245.76,216.064H115.712c0-57.344,58.368-103.424,130.048-103.424L245.76,216.064L245.76,216.064z"/>
<rect x="121.86" y="216.06" style="fill:#D15241;" width="244.22" height="12.288"/>
<path style="fill:#DC8744;" d="M370.176,264.192H121.344c-8.704,0-16.384-7.168-16.384-16.384v-3.072
	c0-8.704,7.168-16.384,16.384-16.384h249.344c8.704,0,16.384,7.168,16.384,16.384v3.072
	C386.56,256.512,379.392,264.192,370.176,264.192z"/>
<g>
	<path style="fill:#44C4A1;" d="M341.504,278.528c0,4.608,5.632,8.192,12.288,8.192s12.288-3.584,12.288-8.192"/>
	<path style="fill:#44C4A1;" d="M317.44,278.528c0,4.608,5.632,8.192,12.288,8.192s12.288-3.584,12.288-8.192"/>
	<path style="fill:#44C4A1;" d="M292.864,278.528c0,4.608,5.632,8.192,12.288,8.192s12.288-3.584,12.288-8.192"/>
	<path style="fill:#44C4A1;" d="M268.8,278.528c0,4.608,5.632,8.192,12.288,8.192s12.288-3.584,12.288-8.192"/>
	<path style="fill:#44C4A1;" d="M244.224,278.528c0,4.608,5.632,8.192,12.288,8.192c6.656,0,12.288-3.584,12.288-8.192"/>
	<path style="fill:#44C4A1;" d="M219.648,278.528c0,4.608,5.632,8.192,12.288,8.192c6.656,0,12.288-3.584,12.288-8.192"/>
	<path style="fill:#44C4A1;" d="M195.584,278.528c0,4.608,5.632,8.192,12.288,8.192c6.656,0,12.288-3.584,12.288-8.192"/>
	<path style="fill:#44C4A1;" d="M171.008,278.528c0,4.608,5.632,8.192,12.288,8.192c6.656,0,12.288-3.584,12.288-8.192"/>
	<path style="fill:#44C4A1;" d="M146.432,278.528c0,4.608,5.632,8.192,12.288,8.192c6.656,0,12.288-3.584,12.288-8.192"/>
	<path style="fill:#44C4A1;" d="M121.856,278.528c0,4.608,5.632,8.192,12.288,8.192c6.656,0,12.288-3.584,12.288-8.192"/>
	<rect x="121.86" y="264.19" style="fill:#44C4A1;" width="244.22" height="15.36"/>
</g>
<g>
	<path style="fill:#FFFFFF;" d="M233.472,138.24c6.656-1.024,11.264-5.632,10.752-8.192c-1.024-2.56-7.168-4.096-13.312-1.024
		c-4.096,2.048-14.848,9.728-14.848,9.728S228.864,139.264,233.472,138.24z"/>
	<path style="fill:#FFFFFF;" d="M195.072,155.648c6.656-1.024,11.264-5.632,10.752-8.192c-1.024-2.56-7.168-4.096-13.312-1.024
		c-4.096,2.048-14.848,9.728-14.848,9.728S190.976,156.16,195.072,155.648z"/>
	<path style="fill:#FFFFFF;" d="M166.912,177.152c6.656-1.024,11.264-5.632,10.752-8.192c-1.024-2.56-7.168-4.096-13.312-1.024
		c-4.096,2.048-14.848,9.728-14.848,9.728S162.304,177.664,166.912,177.152z"/>
	<path style="fill:#FFFFFF;" d="M257.536,150.016c6.656-1.024,11.264-5.632,10.752-8.192s-7.168-4.096-13.312-1.024
		c-4.096,2.048-14.848,9.728-14.848,9.728S253.44,150.528,257.536,150.016z"/>
	<path style="fill:#FFFFFF;" d="M210.944,175.616c6.656-1.024,11.264-5.632,10.752-8.192c-0.512-2.56-7.168-4.096-13.312-1.024
		c-4.096,2.048-14.848,9.728-14.848,9.728S206.848,176.128,210.944,175.616z"/>
	<path style="fill:#FFFFFF;" d="M257.536,173.056c6.656-1.024,11.264-5.632,10.752-8.192c-1.024-2.56-7.168-4.096-13.312-1.024
		c-4.096,2.048-14.848,9.728-14.848,9.728S253.44,174.08,257.536,173.056z"/>
	<path style="fill:#FFFFFF;" d="M188.416,196.608c6.656-1.024,11.264-5.632,10.752-8.192c-1.024-2.56-7.168-4.096-13.312-1.024
		c-4.096,2.048-14.848,9.728-14.848,9.728S184.32,197.632,188.416,196.608z"/>
	<path style="fill:#FFFFFF;" d="M294.4,140.8c6.656-1.024,11.264-5.632,10.752-8.192c-1.024-2.56-7.168-4.096-13.312-1.024
		c-4.608,1.536-15.36,9.216-15.36,9.216S289.792,141.312,294.4,140.8z"/>
	<path style="fill:#FFFFFF;" d="M237.568,193.024c6.656-1.024,11.264-5.632,10.752-8.192c-1.024-2.56-7.168-4.096-13.312-1.024
		c-4.096,2.048-14.848,9.728-14.848,9.728S233.472,194.048,237.568,193.024z"/>
	<path style="fill:#FFFFFF;" d="M296.448,166.912c6.656-1.024,11.264-5.632,10.752-8.192c-1.024-2.56-7.168-4.096-13.312-1.024
		c-4.096,2.048-14.848,9.728-14.848,9.728S291.84,167.424,296.448,166.912z"/>
	<path style="fill:#FFFFFF;" d="M276.992,198.656c6.656-1.024,11.264-5.632,10.752-8.192s-7.168-4.096-13.312-1.024
		c-4.096,2.048-14.848,9.728-14.848,9.728S272.384,199.68,276.992,198.656z"/>
	<path style="fill:#FFFFFF;" d="M318.464,190.976c6.656-1.024,11.264-5.632,10.752-8.192c-1.024-2.56-7.168-4.096-13.312-1.024
		c-4.096,2.048-14.848,9.728-14.848,9.728S314.368,192,318.464,190.976z"/>
</g>
<g>
</g>
<g>
</g>
<g>
</g>
<g>
</g>
<g>
</g>
<g>
</g>
<g>
</g>
<g>
</g>
<g>
</g>
<g>
</g>
<g>
</g>
<g>
</g>
<g>
</g>
<g>
</g>
<g>
</g>
</svg>
