<?xml version="1.0" encoding="iso-8859-1"?>
<!-- Generator: Adobe Illustrator 19.0.0, SVG Export Plug-In . SVG Version: 6.00 Build 0)  -->
<svg version="1.1" id="Capa_1" xmlns="http://www.w3.org/2000/svg" xmlns:xlink="http://www.w3.org/1999/xlink" x="0px" y="0px"
	 viewBox="0 0 308.4 308.4" style="enable-background:new 0 0 308.4 308.4;" xml:space="preserve">
<path style="fill:#D68041;" d="M154,276.2c0,0,75.2,0,103.6,0s34.4-20.4,34.4-20.4s10.8-25.2,10.8-80C302.8,96.2,236,32.2,154,32.2
	S5.2,96.6,5.2,175.8c0,54.8,10.8,80,10.8,80s6,20.4,34.4,20.4S154,276.2,154,276.2z"/>
<path style="fill:#EC9548;" d="M234.4,255.8c0,0,10.8-25.2,10.8-80c0-70-51.6-128-120-141.2c-68.4,12.8-120,71.2-120,141.2
	c0,54.8,10.8,80,10.8,80s6,20.4,34.4,20.4c10.8,0,28.4,0,46,0c28.8,0,57.6,0,57.6,0s21.6,0,46,0
	C228.4,276.2,234.4,255.8,234.4,255.8z"/>
<polygon style="fill:#4DBC1F;" points="302.4,180.2 274,180.2 240,213.8 208.4,180.2 5.2,180.2 10,143.4 297.2,143.4 "/>
<polygon style="fill:#92171F;" points="3.6,178.6 206.8,178.6 240,213.8 275.6,178.6 302.8,178.6 302.8,218.2 9.2,218.2 "/>
<g>
	<path style="fill:#231F20;" d="M96.4,79.4c0,4-3.2,6.8-6.8,6.8s-6.8-3.2-6.8-6.8s3.2-6.8,6.8-6.8S96.4,75.8,96.4,79.4z"/>
	<path style="fill:#231F20;" d="M154,27C69.2,27,0,93.8,0,175.8c0,53.2,10,78.8,11.2,81.6c1.2,3.2,8.8,24,39.2,24H258
		c30,0,38-20.8,39.2-24s11.2-28.8,11.2-81.6C308,93.8,238.8,27,154,27z M154,37c66,0,121.6,42.8,138.4,101.2H15.6
		C32.4,80.2,88,37,154,37z M10.4,185.4h196l25.6,27.2H12C11.2,204.6,10.8,195.8,10.4,185.4z M272,175.4l-32,31.2l-29.6-31.2h-200
		c0-9.2,0.8-18,2.8-26.8h282c1.6,8.8,2.8,17.6,2.8,26.8H272z M297.6,185.4c-0.4,10.4-0.8,19.2-1.6,27.2h-47.6l27.6-27.2H297.6z
		 M287.2,253.8l-0.4,0.8c0,0-5.2,16.8-29.2,16.8H50.4c-24,0-29.2-16-29.2-16.8l-0.4-0.8c0,0-4.4-10.4-7.2-31.2h281.2
		C291.6,243.4,287.6,253.8,287.2,253.8z"/>
	<circle style="fill:#231F20;" cx="103.2" cy="109.8" r="6.8"/>
	<circle style="fill:#231F20;" cx="69.6" cy="103" r="6.8"/>
</g>
<g>
</g>
<g>
</g>
<g>
</g>
<g>
</g>
<g>
</g>
<g>
</g>
<g>
</g>
<g>
</g>
<g>
</g>
<g>
</g>
<g>
</g>
<g>
</g>
<g>
</g>
<g>
</g>
<g>
</g>
</svg>
