<?xml version="1.0" encoding="iso-8859-1"?>
<!-- Generator: Adobe Illustrator 19.0.0, SVG Export Plug-In . SVG Version: 6.00 Build 0)  -->
<svg version="1.1" id="Capa_1" xmlns="http://www.w3.org/2000/svg" xmlns:xlink="http://www.w3.org/1999/xlink" x="0px" y="0px"
	 viewBox="0 0 512 512" style="enable-background:new 0 0 512 512;" xml:space="preserve">
<path style="fill:#C98A2E;" d="M434.492,345.494H77.508c-10.595,24.659,0.606,53.481,24.923,63.81
	c47.296,20.092,99.166,22.185,153.569,22.185s106.273-2.093,153.569-22.185C433.886,398.975,445.088,370.153,434.492,345.494z"/>
<path style="fill:#6D5B4D;" d="M450.519,282.498H61.483c-11.079,0-20.348,8.642-20.467,19.512
	c-0.214,19.595,12.58,38.321,34.068,46.313c55.719,20.726,116.825,32.169,180.916,32.169s125.197-11.442,180.916-32.169
	c21.488-7.993,34.282-26.718,34.068-46.313C470.867,291.141,461.597,282.498,450.519,282.498z"/>
<path style="fill:#625143;" d="M450.519,282.498H61.483c-7.265,0-13.731,3.729-17.37,9.351
	c4.992,12.856,15.815,23.838,30.972,29.475c55.719,20.726,116.825,32.169,180.916,32.169s125.197-11.442,180.916-32.169
	c15.157-5.638,25.979-16.619,30.972-29.475C464.25,286.227,457.783,282.498,450.519,282.498z"/>
<path style="fill:#DFCE4E;" d="M278.381,421.518c-14.423,11.963-30.338,11.963-44.761,0l-72.614-60.227l-94.994-78.791h189.988
	h189.988l-94.994,78.791L278.381,421.518z"/>
<path style="fill:#EFE388;" d="M255.989,415.49c0.003,0,0.008,0,0.011,0c4.084,0,8.391-1.856,12.806-5.518l22.482-18.647
	c9.169-7.605,6.201-22.224-5.139-25.872c-8.117-2.611-15.713-6.205-22.477-10.692c-1.843-1.2-4.652-1.89-7.718-1.894
	c-2.973,0.005-5.781,0.694-7.624,1.892c-15.289,10.147-34.829,15.734-55.033,15.734c-6.995,0-14.02-0.66-20.884-1.96
	c-1.191-0.221-2.373-0.467-3.55-0.724l57.486,47.68C238.373,415.488,252.002,415.488,255.989,415.49z"/>
<path style="fill:#A0BC72;" d="M483.265,225.548c-0.09-0.003-0.177-0.006-0.268-0.009c-0.641-0.02-1.283-0.032-1.925-0.036
	c-11.392-0.057-22.778,2.739-33.264,7.651c-121.565,57.049-262.05,57.049-383.614,0c-10.484-4.913-21.871-7.708-33.264-7.651
	c-0.643,0.004-1.284,0.016-1.925,0.035c-0.089,0.003-0.178,0.006-0.267,0.009c-16.908,0.487-26.996,16.127-17.651,31.85
	c0.049,0.081,0.098,0.163,0.148,0.244c4.98,8.176,12.103,15.566,20.332,21.39c16.495,11.763,37.296,17.111,55.366,13.984
	c8.389-1.404,17.277-0.384,25.594,2.915c8.31,3.307,15.158,8.545,19.575,15.118c9.443,14.234,26.84,24.484,45.841,27.999
	c18.988,3.614,39.189,0.441,53.856-9.319c6.805-4.481,15.263-6.846,24.204-6.86c8.94,0.014,17.398,2.379,24.204,6.86
	c14.665,9.76,34.868,12.933,53.856,9.319c19.002-3.516,36.4-13.765,45.841-27.999c4.416-6.574,11.264-11.811,19.575-15.118
	c8.317-3.299,17.206-4.319,25.594-2.915c18.07,3.126,38.869-2.221,55.366-13.985c8.228-5.824,15.354-13.214,20.332-21.39
	c0.05-0.081,0.099-0.162,0.148-0.244C510.26,241.675,500.173,226.033,483.265,225.548z"/>
<path style="fill:#7C9554;" d="M447.808,233.153c-121.565,57.049-262.049,57.049-383.614,0c-3.526-1.652-7.154-3.064-10.849-4.209
	c-5.56-1.722-10.769,3.674-8.621,9.083c0.015,0.039,0.031,0.078,0.047,0.117c6.484,16.242,20.057,29.293,37.238,35.808
	c55.207,20.931,113.747,31.543,173.993,31.543s118.787-10.612,173.993-31.543c17.182-6.514,30.754-19.565,37.238-35.808
	c0.016-0.039,0.031-0.078,0.047-0.117c2.147-5.41-3.062-10.805-8.621-9.083C454.962,230.09,451.334,231.502,447.808,233.153z"/>
<path style="fill:#C98A2E;" d="M256.001,290.498c59.755,0,116.728-10.873,168.677-30.569c26.709-10.126,39.013-38.381,27.375-62.553
	C418.922,128.563,343.608,80.51,256.001,80.51S93.079,128.562,59.948,197.375c-11.638,24.173,0.666,52.427,27.375,62.553
	C139.274,279.624,196.245,290.498,256.001,290.498z"/>
<path style="opacity:0.5;fill:#D9B43A;enable-background:new    ;" d="M355.136,219.931c26.709-10.126,39.013-38.381,27.375-62.553
	c-11.674-24.248-28.591-45.911-49.433-63.809c-23.916-8.431-49.904-13.058-77.077-13.058c-87.608,0-162.921,48.052-196.051,116.865
	c-5.731,11.902-5.646,24.79-0.905,36.021c40.334,11.12,83.108,17.104,127.415,17.104C246.215,250.5,303.187,239.627,355.136,219.931
	z"/>
<circle cx="211.958" cy="174.81" r="7.5"/>
<circle cx="251.956" cy="124.813" r="7.5"/>
<circle cx="240.957" cy="98.814" r="7.5"/>
<circle cx="271.955" cy="174.81" r="7.5"/>
<circle cx="241.956" cy="214.807" r="7.5"/>
<circle cx="331.951" cy="204.808" r="7.5"/>
<circle cx="298.953" cy="114.813" r="7.5"/>
<circle cx="311.952" cy="144.811" r="7.5"/>
<circle cx="352.95" cy="124.813" r="7.5"/>
<circle cx="352.95" cy="164.81" r="7.5"/>
<circle cx="102.965" cy="184.809" r="7.5"/>
<circle cx="122.964" cy="144.811" r="7.5"/>
<circle cx="202.959" cy="104.814" r="7.5"/>
<circle cx="182.96" cy="194.808" r="7.5"/>
<circle cx="372.949" cy="194.808" r="7.5"/>
<circle cx="221.958" cy="144.811" r="7.5"/>
<circle cx="171.961" cy="123.813" r="7.5"/>
<circle cx="151.962" cy="164.81" r="7.5"/>
<path d="M508.743,232.562c-4.825-8.77-14.269-14.195-25.263-14.511c-4.11-0.108-7.594,3.141-7.713,7.281
	c-0.119,4.14,3.141,7.594,7.281,7.713c5.625,0.162,10.317,2.684,12.553,6.748c2.187,3.976,1.784,8.867-1.12,13.753l-0.12,0.197
	c-4.37,7.178-10.683,13.806-18.279,19.183c-4.447,3.171-9.314,5.87-14.47,8.021c-9.53,3.977-19.513,5.831-28.884,5.371
	c-2.225-0.11-4.371-0.342-6.42-0.697c-9.74-1.631-19.977-0.476-29.605,3.344c-9.821,3.909-17.784,10.1-23.052,17.941
	c-8.141,12.271-23.451,21.532-40.994,24.777c-17.52,3.335-35.577,0.272-48.329-8.215c-8.02-5.281-17.811-8.081-28.34-8.096
	c-10.507,0.017-20.299,2.816-28.347,8.117c-12.721,8.465-30.772,11.531-48.337,8.187c-17.504-3.239-32.814-12.498-40.98-24.807
	c-5.243-7.806-13.206-13.997-23.036-17.908c-9.621-3.816-19.857-4.971-29.638-3.333c-2.007,0.348-4.153,0.58-6.379,0.69
	c-9.362,0.462-19.353-1.394-28.884-5.371c-5.155-2.15-10.022-4.849-14.491-8.036c-7.569-5.357-13.882-11.986-18.259-19.17
	l-0.106-0.174c-2.917-4.908-3.319-9.799-1.132-13.774c2.235-4.063,6.928-6.586,12.583-6.749l0.249-0.009
	c0.58-0.018,1.16-0.028,1.733-0.032c7.021-0.036,14.142,1.127,21.249,3.455c5.879,13.822,17.515,24.822,32.45,30.483
	c54.355,20.608,112,31.057,171.336,31.057c59.334,0,116.98-10.449,171.337-31.057c16.176-6.134,28.498-18.519,33.807-33.979
	c4.395-12.791,3.565-26.585-2.334-38.84C423.388,120.55,343.78,73.011,256.001,73.011c-43.103,0-84.89,11.345-120.84,32.809
	c-35.128,20.973-62.952,50.45-80.463,85.244c-1.267,2.517-2.182,5.264-2.72,8.167c-0.756,4.073,1.934,7.987,6.007,8.741
	c4.065,0.752,7.986-1.935,8.74-6.007c0.28-1.509,0.741-2.908,1.37-4.159C101.664,131.107,175.421,88.01,256.001,88.01
	c63.979,0,123.244,26.876,161.863,71.147c-1.317-1.147-3.035-1.847-4.919-1.847c-4.142,0-7.5,3.358-7.5,7.5
	c0,4.142,3.358,7.5,7.5,7.5s7.5-3.358,7.5-7.5c0-1.474-0.431-2.844-1.165-4.003c10.296,12.076,19.077,25.409,26.015,39.822
	c4.177,8.673,4.768,18.426,1.663,27.461c-3.856,11.23-12.945,20.279-24.938,24.826c-52.65,19.961-108.507,30.082-166.018,30.082
	c-57.512,0-113.368-10.121-166.017-30.082c-11.993-4.548-21.084-13.596-24.939-24.827c-0.012-0.036-0.029-0.068-0.042-0.104
	c-0.071-0.195-0.146-0.389-0.232-0.578c-0.054-0.119-0.118-0.231-0.177-0.346c-0.052-0.101-0.101-0.204-0.159-0.303
	c-0.071-0.123-0.151-0.238-0.228-0.356c-0.057-0.086-0.11-0.175-0.171-0.259c-0.078-0.109-0.164-0.211-0.248-0.315
	c-0.07-0.087-0.137-0.176-0.212-0.261c-0.078-0.089-0.162-0.171-0.245-0.256c-0.089-0.092-0.177-0.186-0.271-0.274
	c-0.075-0.069-0.154-0.132-0.231-0.198c-0.109-0.093-0.216-0.188-0.331-0.275c-0.076-0.058-0.156-0.109-0.234-0.164
	c-0.121-0.085-0.241-0.172-0.368-0.25c-0.095-0.059-0.194-0.109-0.292-0.163c-0.115-0.064-0.226-0.131-0.345-0.189
	c-0.218-0.107-0.44-0.204-0.667-0.29c-0.002-0.001-0.004-0.002-0.007-0.003l0,0c-0.007-0.003-0.014-0.005-0.022-0.008
	c-9.715-3.646-19.567-5.495-29.3-5.495c-0.127,0-0.254,0-0.381,0.001c-0.703,0.004-1.406,0.017-2.123,0.039l-0.239,0.008
	c-10.994,0.316-20.438,5.742-25.263,14.511c-4.782,8.695-4.279,19.144,1.381,28.667l0.19,0.314
	c5.433,8.916,13.179,17.08,22.382,23.594c2.844,2.028,5.831,3.889,8.929,5.58c-1.672,3.464-2.58,7.262-2.624,11.212
	c-0.239,21.798,12.841,41.372,33.752,51.228c-5.523,25.877,7.698,52.63,32.23,63.052c49.488,21.022,104.449,22.782,156.502,22.782
	s107.014-1.759,156.502-22.782c16.051-6.819,28.02-21.232,32.019-38.554c0.932-4.036-1.585-8.063-5.621-8.994
	c-4.036-0.934-8.063,1.585-8.993,5.621c-2.923,12.661-11.621,23.175-23.27,28.123c-37.202,15.803-78.394,20.115-119.051,21.224
	l50.569-41.942c34.322-5.319,68.018-14.021,100.182-25.894l1.195-0.437c23.921-8.898,39.21-29.869,38.952-53.425
	c-0.044-3.951-0.952-7.747-2.623-11.211c3.095-1.689,6.077-3.545,8.907-5.565c9.231-6.535,16.979-14.699,22.353-23.529l0.24-0.394
	C513.022,251.706,513.526,241.258,508.743,232.562z M81.503,358.601c29.785,10.44,60.797,18.194,92.343,23.083l50.57,41.942
	c-40.657-1.109-81.849-5.421-119.052-21.224C88.22,395.119,78.678,376.817,81.503,358.601z M434.308,341.293l-1.161,0.424
	c-23.126,8.536-47.07,15.38-71.474,20.46l13.154-10.91c3.188-2.645,3.629-7.373,0.984-10.56c-2.645-3.188-7.372-3.628-10.56-0.985
	l-35.08,29.097c-0.002,0.002-0.004,0.003-0.006,0.004l-56.572,46.922c-11.673,9.682-23.513,9.682-35.186,0l-56.572-46.921
	c-0.002-0.002-0.004-0.003-0.006-0.004l-38.572-31.993c-3.188-2.643-7.917-2.204-10.56,0.985c-2.645,3.188-2.204,7.917,0.984,10.56
	l16.646,13.807c-24.405-5.08-48.35-11.924-71.476-20.461l-1.154-0.422c-17.916-6.665-29.371-22.053-29.183-39.203
	c0.02-1.871,0.507-3.67,1.382-5.303c9.977,3.437,20.287,4.995,30.117,4.506c2.833-0.14,5.59-0.44,8.154-0.884
	c7.043-1.18,14.511-0.318,21.584,2.487c6.998,2.785,12.573,7.049,16.098,12.295c10.343,15.591,29.306,27.265,50.688,31.221
	c21.288,4.053,43.497,0.148,59.383-10.423c5.569-3.667,12.516-5.612,20.067-5.624c7.574,0.012,14.52,1.957,20.061,5.604
	c11.779,7.84,27.009,12.016,42.746,12.015c5.522,0,11.108-0.514,16.629-1.565c21.422-3.963,40.386-15.637,50.702-31.191
	c3.549-5.283,9.124-9.546,16.114-12.329c7.08-2.808,14.545-3.67,21.551-2.497c2.606,0.451,5.364,0.751,8.195,0.891
	c9.843,0.489,20.145-1.069,30.117-4.505c0.875,1.633,1.362,3.431,1.382,5.302C463.674,319.242,452.219,334.631,434.308,341.293z"/>
<g>
</g>
<g>
</g>
<g>
</g>
<g>
</g>
<g>
</g>
<g>
</g>
<g>
</g>
<g>
</g>
<g>
</g>
<g>
</g>
<g>
</g>
<g>
</g>
<g>
</g>
<g>
</g>
<g>
</g>
</svg>
