<?xml version="1.0" encoding="iso-8859-1"?>
<!-- Generator: Adobe Illustrator 19.0.0, SVG Export Plug-In . SVG Version: 6.00 Build 0)  -->
<svg version="1.1" id="Capa_1" xmlns="http://www.w3.org/2000/svg" xmlns:xlink="http://www.w3.org/1999/xlink" x="0px" y="0px"
	 viewBox="0 0 512 512" style="enable-background:new 0 0 512 512;" xml:space="preserve">
<path style="fill:#FDB876;" d="M281.077,44.127h-50.153c-84.792,0-160.72,52.517-190.636,131.856l0,0
	c-5.982,15.864,5.742,32.813,22.696,32.813h386.033c16.954,0,28.677-16.949,22.696-32.813l0,0
	C441.797,96.644,365.869,44.127,281.077,44.127z"/>
<g>
	<path style="fill:#FFE584;" d="M150.889,175.398c-4.143,0-7.5-3.357-7.5-7.5v-3.349c0-4.143,3.357-7.5,7.5-7.5s7.5,3.357,7.5,7.5
		v3.349C158.389,172.041,155.031,175.398,150.889,175.398z"/>
	<path style="fill:#FFE584;" d="M117.224,142.696c-4.143,0-7.5-3.357-7.5-7.5v-3.349c0-4.143,3.357-7.5,7.5-7.5s7.5,3.357,7.5,7.5
		v3.349C124.724,139.339,121.366,142.696,117.224,142.696z"/>
	<path style="fill:#FFE584;" d="M256,193.295c-4.143,0-7.5-3.357-7.5-7.5v-3.349c0-4.143,3.357-7.5,7.5-7.5s7.5,3.357,7.5,7.5v3.349
		C263.5,189.938,260.143,193.295,256,193.295z"/>
	<path style="fill:#FFE584;" d="M211.964,89.836c-4.143,0-7.5-3.357-7.5-7.5v-3.348c0-4.143,3.357-7.5,7.5-7.5s7.5,3.357,7.5,7.5
		v3.348C219.464,86.478,216.106,89.836,211.964,89.836z"/>
	<path style="fill:#FFE584;" d="M361.111,175.398c-4.142,0-7.5-3.357-7.5-7.5v-3.349c0-4.143,3.358-7.5,7.5-7.5
		c4.143,0,7.5,3.357,7.5,7.5v3.349C368.611,172.041,365.254,175.398,361.111,175.398z"/>
	<path style="fill:#FFE584;" d="M394.776,142.696c-4.143,0-7.5-3.357-7.5-7.5v-3.349c0-4.143,3.357-7.5,7.5-7.5s7.5,3.357,7.5,7.5
		v3.349C402.276,139.339,398.919,142.696,394.776,142.696z"/>
	<path style="fill:#FFE584;" d="M300.036,89.836c-4.143,0-7.5-3.357-7.5-7.5v-3.348c0-4.143,3.357-7.5,7.5-7.5s7.5,3.357,7.5,7.5
		v3.348C307.536,86.478,304.179,89.836,300.036,89.836z"/>
</g>
<path style="opacity:0.1;enable-background:new    ;" d="M471.713,175.983L471.713,175.983
	C441.797,96.644,365.869,44.127,281.077,44.127h-50.153c-0.137,0-0.273,0.008-0.41,0.008
	c84.626,0.17,160.358,52.637,190.225,131.848l0,0c5.981,15.864-5.742,32.813-22.696,32.813h50.973
	C465.97,208.797,477.694,191.847,471.713,175.983z"/>
<path style="fill:#FDB876;" d="M459.313,377.068H52.687c-13.681,0-24.772,11.091-24.772,24.772v41.259
	c0,13.681,11.091,24.772,24.772,24.772h406.626c13.681,0,24.772-11.091,24.772-24.772V401.84
	C484.085,388.159,472.994,377.068,459.313,377.068z"/>
<path style="opacity:0.1;enable-background:new    ;" d="M459.313,377.068H52.687c-13.681,0-24.772,11.091-24.772,24.772v20.786
	c0-13.681,11.091-24.772,24.772-24.772h377.404c2.193,0,4.025,1.753,4.029,3.945c0,0.014,0,0.027,0,0.041v41.259
	c0,13.681-11.091,24.772-24.772,24.772h49.964c13.681,0,24.772-11.091,24.772-24.772V401.84
	C484.085,388.159,472.994,377.068,459.313,377.068z"/>
<path style="fill:#BD9D7D;" d="M480.497,313.048H31.503c-13.256,0-24.003,10.746-24.003,24.003v16.015
	c0,13.256,10.746,24.003,24.003,24.003h448.995c13.256,0,24.003-10.746,24.003-24.003v-16.015
	C504.5,323.794,493.754,313.048,480.497,313.048z"/>
<path style="opacity:0.1;enable-background:new    ;" d="M480.497,313.048H31.503c-13.256,0-24.003,10.746-24.003,24.003v16.015
	c0,0.141,0.008,0.279,0.011,0.419c0.224-13.062,10.876-23.583,23.992-23.583h422.289c2.63,0,4.853,2.091,4.859,4.72
	c0,0.016,0,0.033,0,0.049v20.775c0,11.942-9.681,21.623-21.623,21.623h43.47c13.256,0,24.003-10.746,24.003-24.003v-16.015
	C504.5,323.794,493.754,313.048,480.497,313.048z"/>
<path style="fill:#E8618C;" d="M482.609,260.922H29.391c-12.09,0-21.891,9.801-21.891,21.891v8.344
	c0,12.09,9.801,21.891,21.891,21.891h453.218c12.09,0,21.891-9.801,21.891-21.891v-8.344
	C504.5,270.723,494.699,260.922,482.609,260.922z"/>
<path style="fill:#7CD1A9;" d="M482.609,208.797H29.391c-12.09,0-21.891,9.801-21.891,21.891v8.344
	c0,12.09,9.801,21.891,21.891,21.891h453.218c12.09,0,21.891-9.801,21.891-21.891v-8.344
	C504.5,218.597,494.699,208.797,482.609,208.797z"/>
<path style="opacity:0.1;enable-background:new    ;" d="M482.609,260.922H29.391c-12.09,0-21.891,9.801-21.891,21.891v8.344
	c0,1.342,0.127,2.653,0.359,3.928c1.852-10.214,10.784-17.963,21.533-17.963h425.167c2.533,0,4.704,1.942,4.845,4.471
	c0.023,0.404,0.034,0.81,0.034,1.219v8.344c0,12.09-9.801,21.891-21.891,21.891h45.063c12.09,0,21.891-9.801,21.891-21.891v-8.344
	C504.5,270.723,494.699,260.922,482.609,260.922z"/>
<path style="opacity:0.1;enable-background:new    ;" d="M482.609,208.796h-45.063c12.09,0,21.891,9.801,21.891,21.891v8.344
	c0,12.09-9.801,21.891-21.891,21.891h45.063c12.09,0,21.891-9.801,21.891-21.891v-8.344
	C504.5,218.597,494.699,208.796,482.609,208.796z"/>
<path style="opacity:0.1;enable-background:new    ;" d="M306.84,356.779l-44.178-95.857h130.052l-44.178,95.857
	C339.413,376.573,315.963,376.573,306.84,356.779z"/>
<path style="fill:#FFE584;" d="M306.84,339.831l-44.178-78.909h130.052l-44.178,78.909
	C339.413,356.125,315.963,356.125,306.84,339.831z"/>
<path d="M343.234,128.483v-13.235c0-4.143-3.357-7.5-7.5-7.5s-7.5,3.357-7.5,7.5v13.235c0,4.143,3.357,7.5,7.5,7.5
	S343.234,132.626,343.234,128.483z M183.766,128.483v-13.235c0-4.143-3.357-7.5-7.5-7.5s-7.5,3.357-7.5,7.5v13.235
	c0,4.143,3.357,7.5,7.5,7.5C180.408,135.983,183.766,132.626,183.766,128.483z M256,146.147c10.225,0,19.947-4.428,26.676-12.149
	c2.722-3.123,2.395-7.86-0.727-10.582c-3.123-2.721-7.86-2.396-10.582,0.727c-3.879,4.451-9.479,7.004-15.367,7.004
	s-11.488-2.553-15.367-7.004c-2.723-3.122-7.46-3.447-10.582-0.727c-3.122,2.722-3.448,7.459-0.727,10.582
	C236.053,141.719,245.775,146.147,256,146.147z M512,239.031v-8.344c0-16.206-13.185-29.391-29.391-29.391h-6.629
	c5.197-8.361,6.243-18.695,2.749-27.96c-15.218-40.361-42.014-74.665-77.49-99.202c-35.476-24.538-77.027-37.508-120.163-37.508
	h-50.152c-46.212,0-91.864,15.489-128.546,43.614c-3.287,2.521-3.909,7.229-1.389,10.516c2.521,3.286,7.227,3.908,10.516,1.389
	c34.078-26.129,76.488-40.519,119.419-40.519h50.152c40.072,0,78.674,12.049,111.631,34.844
	c32.957,22.796,57.85,54.663,71.987,92.159c1.97,5.223,1.278,10.852-1.897,15.442c-3.175,4.592-8.198,7.225-13.78,7.225H62.983
	c-5.582,0-10.604-2.633-13.78-7.224c-3.175-4.592-3.867-10.221-1.897-15.444c9.074-24.066,22.548-45.786,40.048-64.556
	c2.825-3.029,2.659-7.775-0.371-10.6s-7.776-2.657-10.6,0.371c-18.84,20.207-33.346,43.588-43.112,69.492
	c-3.494,9.266-2.446,19.599,2.75,27.96h-6.629C13.185,201.297,0,214.481,0,230.688v8.344c0,8.689,3.793,16.505,9.806,21.891
	C3.793,266.308,0,274.124,0,282.814v8.344c0,9.003,4.073,17.07,10.469,22.465C4.047,319.394,0,327.757,0,337.051v16.015
	c0,15.418,11.137,28.276,25.787,30.974c-3.39,5.106-5.372,11.225-5.372,17.801v41.26c0,17.795,14.478,32.272,32.272,32.272h406.625
	c17.795,0,32.272-14.477,32.272-32.272v-41.26c0-6.575-1.981-12.694-5.372-17.801c14.65-2.698,25.787-15.555,25.787-30.974v-16.015
	c0-9.293-4.047-17.657-10.469-23.428c6.396-5.396,10.469-13.462,10.469-22.465v-8.344c0-8.689-3.793-16.506-9.806-21.892
	C508.207,255.537,512,247.72,512,239.031z M476.585,443.1c0,9.523-7.748,17.272-17.272,17.272H52.688
	c-9.524,0-17.272-7.748-17.272-17.272v-41.26c0-9.523,7.748-17.271,17.272-17.271h406.625c9.524,0,17.272,7.748,17.272,17.271V443.1
	z M497,353.065c0,9.1-7.403,16.503-16.503,16.503H31.503c-9.1,0-16.503-7.403-16.503-16.503v-16.015
	c0-9.1,7.403-16.503,16.503-16.503h43.379c4.143,0,7.5-3.357,7.5-7.5c0-4.142-3.357-7.5-7.5-7.5H29.391
	c-7.934,0-14.391-6.456-14.391-14.391v-8.344c0-7.936,6.456-14.392,14.391-14.392h228.875l20.785,37.126H109.542
	c-4.143,0-7.5,3.358-7.5,7.5c0,4.143,3.357,7.5,7.5,7.5h177.907l12.847,22.947c5.629,10.055,15.869,16.057,27.393,16.057
	c11.522-0.001,21.763-6.003,27.391-16.057l12.847-22.947h112.571c9.1,0,16.503,7.403,16.503,16.503L497,353.065L497,353.065z
	 M275.456,268.422h104.463l-22.97,41.027c-0.007,0.013-0.014,0.025-0.021,0.038l-14.937,26.68c-2.939,5.25-8.286,8.385-14.303,8.385
	c-6.018,0-11.365-3.135-14.305-8.385l-14.939-26.684c-0.005-0.009-0.01-0.018-0.015-0.026L275.456,268.422z M497,239.031
	c0,7.935-6.456,14.391-14.391,14.391H456.12c-4.143,0-7.5,3.357-7.5,7.5c0,4.142,3.357,7.5,7.5,7.5h26.489
	c7.935,0,14.391,6.456,14.391,14.392v8.344c0,7.935-6.456,14.391-14.391,14.391H376.325l20.785-37.126h27.411
	c4.143,0,7.5-3.358,7.5-7.5c0-4.143-3.357-7.5-7.5-7.5H392.83c-0.013,0-0.025,0-0.038,0H262.584c-0.013,0-0.025,0-0.038,0H29.391
	c-7.934,0-14.391-6.456-14.391-14.391v-8.344c0-7.935,6.456-14.391,14.391-14.391H482.61c7.935,0,14.391,6.456,14.391,14.391
	L497,239.031L497,239.031z"/>
<g>
</g>
<g>
</g>
<g>
</g>
<g>
</g>
<g>
</g>
<g>
</g>
<g>
</g>
<g>
</g>
<g>
</g>
<g>
</g>
<g>
</g>
<g>
</g>
<g>
</g>
<g>
</g>
<g>
</g>
</svg>
