<?xml version="1.0" encoding="iso-8859-1"?>
<!-- Generator: Adobe Illustrator 19.0.0, SVG Export Plug-In . SVG Version: 6.00 Build 0)  -->
<svg version="1.1" id="Capa_1" xmlns="http://www.w3.org/2000/svg" xmlns:xlink="http://www.w3.org/1999/xlink" x="0px" y="0px"
	 viewBox="0 0 512 512" style="enable-background:new 0 0 512 512;" xml:space="preserve">
<path style="fill:#ED6EA4;" d="M349.734,52.18c-9.07-19.45-32.219-27.841-51.653-18.697c-19.391,9.124-27.51,32.43-18.453,51.852
	l27.464,58.897c2.834,6.078,10.06,8.708,16.138,5.874l58.897-27.464c19.422-9.057,28.184-32.129,19.194-51.583
	C392.311,51.562,369.184,43.11,349.734,52.18z"/>
<path style="opacity:0.12;enable-background:new    ;" d="M401.32,71.059c-3.525-7.628-9.211-13.565-15.992-17.424
	c3.54,3.316,6.515,7.355,8.676,12.032c8.99,19.454,0.228,42.526-19.194,51.583l-58.897,27.464c-2.652,1.237-5.523,1.433-8.152,0.756
	c3.186,5.184,9.821,7.269,15.469,4.636l58.897-27.464C401.549,113.585,410.31,90.513,401.32,71.059z"/>
<path style="fill:#F4D06D;" d="M376.467,189.988H137.598c-59.417,0-111.067,40.78-124.852,98.576l0,0
	c-2.149,9.012,4.683,17.666,13.948,17.666H487.37c9.265,0,16.098-8.654,13.948-17.666l0,0
	C487.534,230.768,435.884,189.988,376.467,189.988z"/>
<g style="opacity:0.2;">
	<path d="M57.949,270.111c-4.143,0-7.5-3.357-7.5-7.5v-7.029c0-4.143,3.357-7.5,7.5-7.5s7.5,3.357,7.5,7.5v7.029
		C65.449,266.754,62.092,270.111,57.949,270.111z"/>
	<path d="M103.887,282.486c-4.143,0-7.5-3.357-7.5-7.5v-7.029c0-4.143,3.357-7.5,7.5-7.5s7.5,3.357,7.5,7.5v7.029
		C111.387,279.129,108.029,282.486,103.887,282.486z"/>
	<path d="M121.783,231.974c-4.143,0-7.5-3.357-7.5-7.5v-7.029c0-4.143,3.357-7.5,7.5-7.5s7.5,3.357,7.5,7.5v7.029
		C129.283,228.616,125.926,231.974,121.783,231.974z"/>
	<path d="M386.357,293.401c-4.143,0-7.5-3.357-7.5-7.5v-7.029c0-4.143,3.357-7.5,7.5-7.5s7.5,3.357,7.5,7.5v7.029
		C393.857,290.044,390.5,293.401,386.357,293.401z"/>
	<path d="M404.859,237.294c-4.143,0-7.5-3.357-7.5-7.5v-7.029c0-4.143,3.357-7.5,7.5-7.5s7.5,3.357,7.5,7.5v7.029
		C412.359,233.937,409.002,237.294,404.859,237.294z"/>
	<path d="M444.399,275.628c-4.143,0-7.5-3.357-7.5-7.5v-7.03c0-4.143,3.357-7.5,7.5-7.5s7.5,3.357,7.5,7.5v7.03
		C451.899,272.271,448.542,275.628,444.399,275.628z"/>
</g>
<path style="fill:#F4D06D;" d="M490.16,482.235H21.84c-7.92,0-14.34-6.42-14.34-14.34v-25.878c0-7.919,6.42-14.34,14.34-14.34
	h468.32c7.919,0,14.34,6.42,14.34,14.34v25.878C504.5,475.815,498.08,482.235,490.16,482.235z"/>
<path style="fill:#947165;" d="M488.851,427.678H23.149c-8.643,0-15.649-7.006-15.649-15.649V378.35
	c0-8.643,7.006-15.649,15.649-15.649h465.702c8.643,0,15.649,7.006,15.649,15.649v33.679
	C504.5,420.672,497.494,427.678,488.851,427.678z"/>
<path style="opacity:0.12;enable-background:new    ;" d="M172.079,407.763l-47.124-45.062h148.774l-47.124,45.062
	C210.183,423.467,188.502,423.467,172.079,407.763z"/>
<path style="fill:#F4D06D;" d="M172.079,395.091l-47.124-32.39h148.774l-47.124,32.391
	C210.183,406.379,188.502,406.379,172.079,395.091z"/>
<path style="fill:#ED6EA4;" d="M496.467,362.701H211.16c-4.436,0-8.033-3.596-8.033-8.033v-12.169c0-4.437,3.596-8.033,8.033-8.033
	h285.307c4.436,0,8.033,3.596,8.033,8.033v12.169C504.5,359.104,500.904,362.701,496.467,362.701z"/>
<path style="opacity:0.12;enable-background:new    ;" d="M496.467,362.701H211.16c-4.436,0-8.033-3.596-8.033-8.033v-12.169
	c0-4.437,3.596-8.033,8.033-8.033h285.307c4.436,0,8.033,3.596,8.033,8.033v12.169C504.5,359.104,500.904,362.701,496.467,362.701z"
	/>
<path style="fill:#ED6EA4;" d="M266.248,362.701H19.829c-4.132,0-7.481-3.349-7.481-7.481v-13.273c0-4.132,3.349-7.481,7.481-7.481
	h246.419c4.132,0,7.481,3.349,7.481,7.481v13.273C273.729,359.351,270.38,362.701,266.248,362.701z"/>
<path style="fill:#83CDAB;" d="M274.266,334.465H40.354c-4.029,0-7.294-3.266-7.294-7.294v-13.647c0-4.029,3.266-7.295,7.294-7.295
	h233.911c4.029,0,7.294,3.266,7.294,7.295v13.647C281.56,331.199,278.294,334.465,274.266,334.465z"/>
<path style="opacity:0.12;enable-background:new    ;" d="M274.266,334.465H40.354c-4.029,0-7.294-3.266-7.294-7.294v-13.647
	c0-4.029,3.266-7.295,7.294-7.295h233.911c4.029,0,7.294,3.266,7.294,7.295v13.647C281.56,331.199,278.294,334.465,274.266,334.465z
	"/>
<path style="fill:#83CDAB;" d="M477.833,334.465H243.922c-4.029,0-7.295-3.266-7.295-7.294v-13.647c0-4.029,3.266-7.295,7.295-7.295
	h233.911c4.029,0,7.294,3.266,7.294,7.295v13.647C485.127,331.199,481.861,334.465,477.833,334.465z"/>
<g>
	<path style="fill:#FFFFFF;" d="M184.394,272.113H171.58c-4.143,0-7.5-3.357-7.5-7.5s3.357-7.5,7.5-7.5h12.814
		c4.143,0,7.5,3.357,7.5,7.5S188.536,272.113,184.394,272.113z"/>
	<path style="fill:#FFFFFF;" d="M341.66,272.113h-12.813c-4.143,0-7.5-3.357-7.5-7.5s3.357-7.5,7.5-7.5h12.813
		c4.143,0,7.5,3.357,7.5,7.5S345.803,272.113,341.66,272.113z"/>
</g>
<path style="opacity:0.12;enable-background:new    ;" d="M501.318,288.563L501.318,288.563
	c-13.785-57.796-65.435-98.576-124.852-98.576h-23.512c59.417,0,111.067,40.78,124.852,98.576l0,0
	c2.15,9.012-4.684,17.666-13.948,17.666h23.512C496.635,306.23,503.468,297.575,501.318,288.563z"/>
<path style="opacity:0.12;enable-background:new    ;" d="M490.16,427.678h-23.512c7.92,0,14.34,6.42,14.34,14.34v25.878
	c0,7.92-6.42,14.34-14.34,14.34h23.512c7.92,0,14.34-6.42,14.34-14.34v-25.878C504.5,434.098,498.08,427.678,490.16,427.678z"/>
<path style="opacity:0.12;enable-background:new    ;" d="M488.851,362.701h-23.512c8.643,0,15.649,7.006,15.649,15.649v33.679
	c0,8.643-7.006,15.649-15.649,15.649h23.512c8.643,0,15.649-7.006,15.649-15.649V378.35
	C504.5,369.707,497.494,362.701,488.851,362.701z"/>
<path style="opacity:0.12;enable-background:new    ;" d="M496.467,334.465h-23.512c4.437,0,8.033,3.596,8.033,8.033v12.169
	c0,4.437-3.597,8.033-8.033,8.033h23.512c4.436,0,8.033-3.597,8.033-8.033v-12.169C504.5,338.062,500.904,334.465,496.467,334.465z"
	/>
<path style="opacity:0.12;enable-background:new    ;" d="M477.833,306.23H40.354c-4.029,0-7.294,3.266-7.294,7.295v6.823h428.555
	v6.823c0,4.029-3.266,7.294-7.295,7.294h23.512c4.029,0,7.294-3.266,7.294-7.294v-13.647
	C485.127,309.495,481.862,306.23,477.833,306.23z"/>
<path d="M245.525,265.914c4.154,0,7.995-1.369,11.095-3.681c3.099,2.311,6.94,3.681,11.094,3.681
	c10.253,0,18.595-8.342,18.595-18.595c0-4.143-3.357-7.5-7.5-7.5s-7.5,3.357-7.5,7.5c0,1.982-1.612,3.595-3.595,3.595
	c-1.982,0-3.594-1.612-3.594-3.595c0-4.143-3.357-7.5-7.5-7.5s-7.5,3.357-7.5,7.5c0,1.982-1.612,3.595-3.595,3.595
	c-1.982,0-3.595-1.612-3.595-3.595c0-4.143-3.357-7.5-7.5-7.5s-7.5,3.357-7.5,7.5C226.931,257.572,235.273,265.914,245.525,265.914z
	 M326.623,247.734c4.143,0,7.5-3.357,7.5-7.5c0-0.623,0.507-1.13,1.13-1.13c0.624,0,1.131,0.507,1.131,1.13
	c0,4.143,3.357,7.5,7.5,7.5s7.5-3.357,7.5-7.5c0-8.895-7.236-16.13-16.131-16.13c-8.895,0-16.13,7.235-16.13,16.13
	C319.123,244.377,322.48,247.734,326.623,247.734z M512,342.498c0-8.566-6.968-15.533-15.533-15.533h-3.84v-13.441
	c0-0.145-0.018-0.286-0.022-0.43c4.666-1.142,8.847-3.797,11.906-7.672c4.168-5.278,5.663-12.058,4.103-18.6
	c-7.057-29.586-24.09-56.26-47.961-75.108c-23.872-18.849-53.77-29.229-84.186-29.229H311.21l8.674-23.83
	c2.199-0.199,4.402-0.768,6.516-1.755l58.896-27.463c23.256-10.845,33.499-38.445,22.833-61.527
	c-5.199-11.249-14.47-19.789-26.105-24.047c-9.423-3.447-19.47-3.751-28.913-0.962c-5.442-8.207-13.334-14.434-22.767-17.848
	c-11.65-4.219-24.242-3.636-35.456,1.641c-12.084,5.685-21.096,16.386-24.722,29.356c-1.116,3.989,1.214,8.127,5.203,9.242
	c3.989,1.12,8.127-1.214,9.242-5.203c2.452-8.769,8.525-15.993,16.663-19.822c7.578-3.566,16.089-3.959,23.963-1.109
	c7.874,2.851,14.16,8.601,17.699,16.19c1.75,3.753,6.212,5.379,9.967,3.627c7.588-3.538,16.102-3.902,23.965-1.024
	c7.864,2.877,14.13,8.649,17.643,16.253c7.209,15.599,0.23,34.278-15.556,41.64l-58.896,27.463
	c-1.125,0.524-2.388,0.579-3.551,0.155c-1.166-0.424-2.097-1.277-2.621-2.401L288.07,85.695c-1.751-3.754-6.213-5.38-9.967-3.627
	c-3.754,1.75-5.378,6.213-3.627,9.967l25.816,55.365c1.266,2.716,3.081,5.004,5.248,6.8l-10.296,28.287H137.598
	c-30.416,0-60.313,10.38-84.186,29.229c-23.872,18.848-40.905,45.522-47.961,75.108c-1.561,6.542-0.065,13.321,4.103,18.6
	c3.931,4.981,9.716,7.954,16.006,8.275v13.267h-5.731c-8.261,0-14.981,6.721-14.981,14.981v13.273c0,2.521,0.632,4.895,1.737,6.982
	C2.515,366.376,0,372.073,0,378.35v33.679c0,5.834,2.174,11.166,5.748,15.242C2.181,431.158,0,436.337,0,442.018v25.878
	c0,12.043,9.797,21.84,21.84,21.84h468.32c12.043,0,21.84-9.797,21.84-21.84v-25.878c0-5.68-2.181-10.859-5.748-14.748
	c3.574-4.075,5.748-9.408,5.748-15.242v-33.679c0-4.892-1.529-9.43-4.128-13.173c2.554-2.769,4.128-6.454,4.128-10.509V342.498z
	 M21.326,296.128c-1.305-1.652-1.774-3.775-1.285-5.824c6.277-26.319,21.43-50.048,42.666-66.815s47.833-26.001,74.891-26.001
	h162.854c0.015,0,0.03,0.002,0.045,0.002c0.009,0,0.017-0.002,0.025-0.002h75.944c27.058,0,53.654,9.234,74.89,26.001
	c21.236,16.767,36.389,40.496,42.667,66.815c0.488,2.049,0.02,4.172-1.285,5.824c-1.306,1.653-3.262,2.602-5.368,2.602H26.694
	C24.588,298.73,22.632,297.781,21.326,296.128z M477.627,313.73v13.235h-233.5V313.73H477.627z M229.127,313.73v13.235H40.56V313.73
	H229.127z M40.324,341.963c0.01,0,0.02,0.002,0.03,0.002s0.02-0.001,0.031-0.002l170.49-0.013c0.096,0.004,0.189,0.014,0.285,0.014
	h55.069l0.018,13.235H125.052c-0.025,0-0.049,0-0.073,0H23.149c-0.745,0-1.481,0.039-2.208,0.108
	c-0.358-0.052-0.721-0.088-1.094-0.088l-0.019-13.255L40.324,341.963z M249.578,370.2l-27.22,18.71
	c-13.766,9.461-32.263,9.463-46.03,0l-27.22-18.71H249.578z M497,354.668c0,0.294-0.239,0.532-0.533,0.532
	c-0.967,0-1.888,0.189-2.736,0.522c-1.574-0.339-3.206-0.522-4.88-0.522H360.875c-4.143,0-7.5,3.357-7.5,7.5s3.357,7.5,7.5,7.5
	h127.976c4.493,0,8.149,3.656,8.149,8.149v33.679c0,4.493-3.656,8.149-8.149,8.149H116.07c-4.143,0-7.5,3.357-7.5,7.5
	s3.357,7.5,7.5,7.5h374.09c3.771,0,6.84,3.068,6.84,6.84v25.878c0,3.771-3.068,6.84-6.84,6.84H21.84c-3.771,0-6.84-3.068-6.84-6.84
	v-25.878c0-3.772,3.068-6.84,6.84-6.84h57.008c4.142,0,7.5-3.357,7.5-7.5s-3.358-7.5-7.5-7.5H23.149
	c-4.493,0-8.149-3.656-8.149-8.149v-33.679c0-4.493,3.656-8.149,8.149-8.149h99.477l45.205,31.071
	c9.424,6.478,20.468,9.717,31.511,9.717c11.044,0,22.088-3.239,31.512-9.717l45.205-31.071h49.34c4.143,0,7.5-3.357,7.5-7.5
	s-3.357-7.5-7.5-7.5H281.23v-13.235h215.237c0.294,0,0.533,0.239,0.533,0.533L497,354.668L497,354.668z M169.356,247.734
	c4.143,0,7.5-3.357,7.5-7.5c0-0.623,0.507-1.13,1.13-1.13s1.13,0.507,1.13,1.13c0,4.143,3.357,7.5,7.5,7.5s7.5-3.357,7.5-7.5
	c0-8.895-7.236-16.13-16.13-16.13c-8.893,0-16.13,7.235-16.13,16.13C161.856,244.377,165.214,247.734,169.356,247.734z"/>
<g>
</g>
<g>
</g>
<g>
</g>
<g>
</g>
<g>
</g>
<g>
</g>
<g>
</g>
<g>
</g>
<g>
</g>
<g>
</g>
<g>
</g>
<g>
</g>
<g>
</g>
<g>
</g>
<g>
</g>
</svg>
