<?xml version="1.0" encoding="iso-8859-1"?>
<!-- Generator: Adobe Illustrator 19.0.0, SVG Export Plug-In . SVG Version: 6.00 Build 0)  -->
<svg version="1.1" id="Capa_1" xmlns="http://www.w3.org/2000/svg" xmlns:xlink="http://www.w3.org/1999/xlink" x="0px" y="0px"
	 viewBox="0 0 360 360" style="enable-background:new 0 0 360 360;" xml:space="preserve">
<g id="XMLID_11_">
	<path id="XMLID_458_" style="fill:#64C37D;" d="M180,215v-40H30c-11.046,0-20,8.954-20,20s8.954,20,20,20h60H180z"/>
	<path id="XMLID_459_" style="fill:#4B925E;" d="M180,215h90h60c11.046,0,20-8.954,20-20s-8.954-20-20-20H180V215z"/>
	<path id="XMLID_460_" style="fill:#FFDA44;" d="M30,275c0,22.091,17.908,40,40,40h110v-40H30z"/>
	<path id="XMLID_461_" style="fill:#FF9811;" d="M180,315h110c22.092,0,40-17.909,40-40H180V315z"/>
	<path id="XMLID_462_" style="fill:#FFDA44;" d="M180,105c-8.284,0-15-6.716-15-15s6.716-15,15-15c0-17.136,0-29.654,0-30
		C97.157,45,30,103.203,30,175h150C180,175,180,139.079,180,105z M85,145c-8.284,0-15-6.716-15-15s6.716-15,15-15s15,6.716,15,15
		S93.284,145,85,145z"/>
	<path id="XMLID_466_" style="fill:#FF9811;" d="M195,90c0,8.284-6.716,15-15,15c0,34.079,0,70,0,70h150
		c0-71.797-67.157-130-150-130c0,0.346,0,12.864,0,30C188.284,75,195,81.716,195,90z M275,115c8.284,0,15,6.716,15,15
		s-6.716,15-15,15s-15-6.716-15-15S266.716,115,275,115z"/>
	<path id="XMLID_469_" style="fill:#B02768;" d="M330,215h-60l-90,40v20h150c16.568,0,30-13.432,30-30S346.568,215,330,215z"/>
	<path id="XMLID_470_" style="fill:#EA348B;" d="M180,255l-90-40H30c-16.568,0-30,13.432-30,30s13.432,30,30,30h150V255z"/>
	<circle id="XMLID_472_" style="fill:#FF9811;" cx="85" cy="130" r="15"/>
	<circle id="XMLID_473_" style="fill:#BF720D;" cx="180" cy="90" r="15"/>
	<circle id="XMLID_474_" style="fill:#BF720D;" cx="275" cy="130" r="15"/>
	<polygon id="XMLID_32_" style="fill:#FFDA44;" points="180,215 90,215 180,255 	"/>
	<polygon id="XMLID_475_" style="fill:#FF9811;" points="180,255 270,215 180,215 	"/>
</g>
<g>
</g>
<g>
</g>
<g>
</g>
<g>
</g>
<g>
</g>
<g>
</g>
<g>
</g>
<g>
</g>
<g>
</g>
<g>
</g>
<g>
</g>
<g>
</g>
<g>
</g>
<g>
</g>
<g>
</g>
</svg>
